<svg width="37" height="37" viewBox="0 0 37 37" fill="none" xmlns="http://www.w3.org/2000/svg">
<path d="M23.9743 20.0358L20.8755 23.1451C19.6189 24.4061 17.4078 24.4333 16.124 23.1451L13.0251 20.0358L1.89502 31.202C2.30932 31.3935 2.76611 31.5079 3.25173 31.5079H33.7478C34.2334 31.5079 34.6901 31.3937 35.1042 31.202L23.9743 20.0358Z" fill="#F38020"/>
<path d="M33.7482 5.49219H3.25208C2.76645 5.49219 2.30966 5.60651 1.89551 5.79809L13.7888 17.7308C13.7896 17.7316 13.7905 17.7317 13.7913 17.7325C13.7921 17.7333 13.7922 17.7344 13.7922 17.7344L17.6594 21.6144C18.0701 22.0251 18.9302 22.0251 19.341 21.6144L23.2074 17.7351C23.2074 17.7351 23.2083 17.7333 23.2091 17.7325C23.2091 17.7325 23.2108 17.7316 23.2116 17.7308L35.1046 5.79802C34.6904 5.60637 34.2338 5.49219 33.7482 5.49219Z" fill="#F38020"/>
<path d="M0.345863 7.31421C0.131523 7.74766 0 8.2288 0 8.7442V28.2559C0 28.7713 0.131379 29.2525 0.345791 29.6859L11.4951 18.5004L0.345863 7.31421Z" fill="#F38020"/>
<path d="M36.6541 7.31396L25.5049 18.5003L36.6541 29.686C36.8684 29.2525 37 28.7714 37 28.2558V8.7441C37 8.22856 36.8684 7.74741 36.6541 7.31396Z" fill="#F38020"/>
</svg>
